<?xml version="1.0" encoding="UTF-8"?>
<svg width="256" height="256" viewBox="0 0 256 256" fill="none" xmlns="http://www.w3.org/2000/svg">
  <defs>
    <linearGradient id="g" x1="0" y1="0" x2="1" y2="1">
      <stop offset="0%" stop-color="#0f172a"/>
      <stop offset="100%" stop-color="#111827"/>
    </linearGradient>
    <linearGradient id="accent" x1="0" y1="0" x2="1" y2="1">
      <stop offset="0%" stop-color="#C5A572"/>
      <stop offset="100%" stop-color="#E6D3A3"/>
    </linearGradient>
    <filter id="shadow" x="-20%" y="-20%" width="140%" height="140%">
      <feDropShadow dx="0" dy="6" stdDeviation="8" flood-color="#000" flood-opacity="0.25"/>
    </filter>
  </defs>
  <rect width="256" height="256" rx="56" fill="url(#g)"/>
  <g filter="url(#shadow)">
    <path d="M64 168c0-42 34-76 76-76h28c6.6 0 12 5.4 12 12v16c0 6.6-5.4 12-12 12h-28c-21 0-38 17-38 38 0 6.6-5.4 12-12 12h-14c-6.6 0-12-5.4-12-12Z" fill="url(#accent)"/>
    <path d="M100 88c0-11.046 8.954-20 20-20h68c6.627 0 12 5.373 12 12v16c0 6.627-5.373 12-12 12h-60c-9.941 0-18-8.059-18-18Z" fill="#fff" opacity="0.9"/>
  </g>
  <circle cx="208" cy="48" r="10" fill="#C5A572"/>
</svg>
